<svg xmlns="http://www.w3.org/2000/svg" width="47.414" height="47.414" viewBox="0 0 47.414 47.414">
  <g id="hamburger-menu-bold-duotone" transform="translate(-2 -2)">
    <path id="Path_1" data-name="Path 1" d="M25.707,49.414c-11.175,0-16.763,0-20.236-3.473S2,36.882,2,25.707,2,8.944,5.471,5.471,14.531,2,25.707,2,42.47,2,45.941,5.471s3.473,9.061,3.473,20.236,0,16.763-3.473,20.234S36.882,49.414,25.707,49.414Z" transform="translate(0 0)" fill="#ec2024" opacity="0.5"/>
    <path id="Path_2" data-name="Path 2" d="M37.254,9.028a1.778,1.778,0,0,1-1.778,1.778H7.028a1.778,1.778,0,0,1,0-3.556H35.476A1.778,1.778,0,0,1,37.254,9.028Zm0,9.483a1.778,1.778,0,0,1-1.778,1.778H7.028a1.778,1.778,0,1,1,0-3.556H35.476A1.778,1.778,0,0,1,37.254,18.511Zm0,9.483a1.778,1.778,0,0,1-1.778,1.778H7.028a1.778,1.778,0,1,1,0-3.556H35.476A1.778,1.778,0,0,1,37.254,27.994Z" transform="translate(4.455 7.196)" fill="#ec2024"/>
  </g>
</svg>
